<?xml version="1.0" encoding="UTF-8"?>
<!DOCTYPE svg PUBLIC "-//W3C//DTD SVG 1.1//EN" "http://www.w3.org/Graphics/SVG/1.1/DTD/svg11.dtd">
<!-- Creator: CorelDRAW -->
<svg xmlns="http://www.w3.org/2000/svg" xml:space="preserve" width="13.3863in" height="13.3333in" version="1.1" style="shape-rendering:geometricPrecision; text-rendering:geometricPrecision; image-rendering:optimizeQuality; fill-rule:evenodd; clip-rule:evenodd"
viewBox="0 0 220.98 220.1"
 xmlns:xlink="http://www.w3.org/1999/xlink"
 xmlns:xodm="http://www.corel.com/coreldraw/odm/2003">
 <defs>
  <style type="text/css">
   <![CDATA[
    .str2 {stroke:black;stroke-width:1.1;stroke-miterlimit:2.61313}
    .str0 {stroke:#73A1F0;stroke-width:1.1;stroke-miterlimit:2.61313}
    .str1 {stroke:#CC625C;stroke-width:1.65;stroke-miterlimit:2.61313}
    .fil1 {fill:none}
    .fil7 {fill:#09332B}
    .fil0 {fill:#5C91ED}
    .fil2 {fill:#73A1F0}
    .fil4 {fill:#B82727}
    .fil8 {fill:#E86E17}
    .fil5 {fill:#F29994}
    .fil9 {fill:#FFAF1A}
    .fil6 {fill:#FFCFCC}
    .fil10 {fill:#FFF8E6}
    .fil3 {fill:white}
   ]]>
  </style>
 </defs>
 <g id="Layer_x0020_1">
  <metadata id="CorelCorpID_0Corel-Layer"/>
  <rect class="fil0" transform="matrix(1.92615E-14 -1 0.727273 2.64845E-14 0.403624 220.102)" width="220.1" height="302.64"/>
  <path class="fil1 str0" d="M0.4 188.73c0,0 110.66,64.24 139.91,-16.68 29.25,-80.92 62.57,-57.54 80.19,-28.36m0 -130.17c0,0 -70.35,-32.64 -93.81,50.42 -23.46,83.05 -126.29,-27.96 -126.29,-27.96"/>
  <path class="fil2" d="M220.51 25.79c0,0 -70.35,-26.33 -93.81,40.68 -23.46,67.01 -126.29,-22.56 -126.29,-22.56l0 123.25c0,0 110.97,67.55 139.91,-13.46 28.94,-81.01 49.6,-62.92 80.19,-36.4l0 -91.51z"/>
  <path class="fil3" d="M119.89 88.27c1.81,1.33 3.62,1.43 5.36,0.62 2.75,0.63 4.65,-2.12 4.65,-2.12 1.78,0.3 2.57,-2.62 2.57,-2.62 1.8,-0.26 1.45,-2.19 1.45,-2.19 2.97,-1.32 2.2,-5.09 2.2,-5.09 1.66,-0.97 0.81,-2.95 0.81,-2.95 1.88,0.06 0.72,-3.95 0.72,-3.95 1.36,-1.93 0.35,-3.66 0.35,-3.66 2.19,-2.47 0.05,-4.59 0.05,-4.59 1.37,-1.74 -0.15,-2.48 -0.15,-2.48 1.51,-2.86 -0.63,-4.49 -0.63,-4.49 0.87,-1.6 -0.57,-2.44 -0.57,-2.44 1.68,-3 -1.41,-3.98 -1.41,-3.98 0.87,-2.66 -1.48,-3.55 -1.48,-3.55 0.49,-1.02 -1.78,-1.78 -3.15,-2.13 -11.59,-7.4 -22.11,37.29 -10.77,45.64z"/>
  <path class="fil4" d="M124.4 74.16c4.28,3.15 8.72,-12.5 4.34,-16.4 -4.38,-3.89 -8.62,13.25 -4.34,16.4z"/>
  <path class="fil5" d="M137.01 59.85c-5.61,-1.67 -13.43,1.06 -9.76,10.97 3.14,8.49 10.61,19.76 4.69,27.46 -10.11,13.14 -50.99,-2.47 -42.74,-22.05 5.34,-12.66 15.41,-10.3 13.39,-18.79 -2.02,-8.49 -37.39,-4.04 -36.78,22.03 0,0 -5.66,-9.7 -7.88,-18.19 -2.22,-8.49 -16.62,-3.27 -12.73,11.92 3.89,15.19 7.48,19.81 7.48,19.81 0,0 -10.34,-13.37 -17.18,-7.88 -6.84,5.49 2.38,20.83 14.3,31.54 0,0 -18.38,-7.31 -12.79,6.92 5.59,14.24 87.76,59.75 87.76,59.75l40.71 36.76 55.24 0 -0 -45.86 -61 -38.43c-1.34,-7.36 4.07,-20.42 1.38,-34.37 -3.68,-19.16 -16.22,-39.24 -24.09,-41.59z"/>
  <path class="fil6" d="M102.59 57.44c-0.72,-3.02 -5.66,-4.4 -11.69,-3.76 -0.05,0.09 -2.88,5.53 11.69,3.76z"/>
  <path class="fil6" d="M146.84 68.61c-3.46,-4.68 -6.95,-7.9 -9.83,-8.76 0,0 -2.72,-0.22 -3.44,2.98 -0.72,3.19 7.9,11.68 13.26,5.78z"/>
  <path class="fil7" d="M101.01 87c1.06,0.83 2.13,1.23 3.18,1.28l-0 0.01 18.34 0.83 0 -0.01c-0.87,-0.14 -1.75,-0.54 -2.63,-1.22 -10.52,-8.24 -2.22,-46.48 8.27,-45.99l0 -0.01 -19.04 -0.89 -0 0.01c-10.41,-0.11 -18.58,37.8 -8.12,46z"/>
  <line class="fil1 str1" x1="49.83" y1="116.41" x2="69.61" y2= "127.63" />
  <path class="fil1 str1" d="M52.48 92.73c0,0 3.05,12.07 21.93,21.34"/>
  <path class="fil1 str1" d="M65.61 79.19c0,0 3.07,8.82 20.14,20.44"/>
  <path class="fil8" d="M220.71 165.59c0,0 -16.36,-4.56 -28.47,-13.86 -12.1,-9.3 -15.44,-7.72 -18.94,-2.98 -3.51,4.74 -37.98,44.23 -37.98,48.52 0,4.3 24.03,22.83 24.03,22.83l61.36 0 -0 -54.52z"/>
  <path class="fil9" d="M208.21 160.94c-4.72,-2.1 -10.12,-4.91 -14.95,-8.46 -6.99,5.25 -16.46,14.73 -25.73,31.49 -7.57,13.69 -14.26,21.95 -19.47,26.93 5.76,4.92 11.3,9.19 11.3,9.19l2.81 0c4.31,-3.82 9.53,-10.21 14.71,-20.88 8.51,-17.53 23.14,-31.4 31.34,-38.28zm-24.02 59.16l25.94 0c3.8,-8.42 7.88,-18.33 10.57,-27.26l-0 -26.04c-7.21,6.85 -18.02,18.72 -22.95,32.17 -3.31,9.04 -8.6,16.05 -13.57,21.12z"/>
  <path class="fil1 str1" d="M128.7 101.34c0,0 -18.6,20.36 1.57,39.5"/>
  <path class="fil1 str1" d="M89.25 97.94c0,0 -14.01,6.54 -21.25,35.56"/>
  <path class="fil1 str1" d="M79.63 130.42c0,0 19.64,-4.81 36.08,12.54"/>
  <path class="fil3" d="M126.67 42.15c0,0 -2.95,-0.87 -3.89,2.39 0,0 -2.14,0.91 -1.88,3.61 0,0 -2.79,1 -1.89,4.05 0,0 -1.36,0.86 -0.91,2.48 0,0 -2.09,1.65 -1.31,4.56 0,0 -1.42,0.75 -0.56,2.52 0,0 -2.18,2.16 -0.76,4.66 0,0 -1.15,1.75 -0.35,3.72 0,0 -1.68,4.07 -0.09,4.01 0,0 -1.06,2.02 0.17,3 0,0 -1.31,3.83 0.97,5.17 0,0 -0.63,1.96 0.84,2.22 0,0 0.15,2.97 1.71,2.66 0,0 1.13,2.84 3.6,2.14 0,0 -5.11,-17.07 -4.03,-24.99 1.08,-7.93 8.38,-22.2 8.38,-22.2z"/>
  <path class="fil1 str2" d="M132.82 55.29c0,0 1.7,-3.95 -1.91,-3.08 0,0 -1.42,-3.68 -3.72,0.04"/>
  <path class="fil1 str2" d="M126.9 79.56c0,0 1.86,4.41 -1.74,3.54 0,0 -1.06,3.11 -3.05,0.99"/>
  <path class="fil1 str2" d="M120.07 73.54c0,0 -3.89,-0.23 -1.46,-3.04 0,0 -2.27,-2.37 0.52,-3.16"/>
  <path class="fil10" d="M70.63 37.95c6.74,1.17 10.84,-1 13.54,-7.18 0.04,-0.08 0.13,-0.12 0.21,-0.1 0.09,0.03 0.14,0.11 0.12,0.2 -1.26,6.62 0.92,10.72 7.18,13.54 0.08,0.04 0.12,0.13 0.09,0.21 -0.03,0.09 -0.11,0.14 -0.2,0.12 -6.7,-1.37 -10.8,0.8 -13.54,7.18 -0.04,0.08 -0.13,0.12 -0.21,0.1 -0.09,-0.03 -0.14,-0.11 -0.12,-0.2 1.29,-6.82 -0.89,-10.92 -7.18,-13.54 -0.08,-0.03 -0.13,-0.12 -0.1,-0.21 0.03,-0.09 0.11,-0.14 0.2,-0.12z"/>
  <path class="fil10" d="M121.45 18.25c6.74,1.17 10.84,-1 13.54,-7.18 0.04,-0.08 0.13,-0.12 0.21,-0.1 0.09,0.03 0.14,0.11 0.12,0.2 -1.26,6.62 0.92,10.72 7.18,13.54 0.08,0.04 0.12,0.13 0.09,0.21 -0.03,0.09 -0.11,0.14 -0.2,0.12 -6.7,-1.37 -10.8,0.8 -13.54,7.18 -0.04,0.08 -0.13,0.12 -0.21,0.1 -0.09,-0.03 -0.14,-0.11 -0.12,-0.2 1.29,-6.82 -0.89,-10.92 -7.18,-13.54 -0.08,-0.03 -0.13,-0.12 -0.1,-0.21 0.03,-0.09 0.11,-0.14 0.2,-0.12z"/>
  <path class="fil10" d="M149.31 57.92c6.74,1.17 10.84,-1 13.54,-7.18 0.04,-0.08 0.13,-0.12 0.21,-0.1 0.09,0.03 0.14,0.11 0.12,0.2 -1.26,6.62 0.92,10.72 7.18,13.54 0.08,0.04 0.12,0.13 0.09,0.21 -0.03,0.09 -0.11,0.14 -0.2,0.12 -6.7,-1.37 -10.8,0.8 -13.54,7.18 -0.04,0.08 -0.13,0.12 -0.21,0.1 -0.09,-0.03 -0.14,-0.11 -0.12,-0.2 1.29,-6.82 -0.89,-10.92 -7.18,-13.54 -0.08,-0.03 -0.13,-0.12 -0.1,-0.21 0.03,-0.09 0.11,-0.14 0.2,-0.12z"/>
  <path class="fil1 str1" d="M88.72 77.57c0,0 -3.8,-1.51 -8.25,0.73"/>
  <path class="fil1 str1" d="M66.04 80.85c0,0 -4.06,0.51 -6.87,4.63"/>
  <path class="fil1 str1" d="M56.88 101.14c0,0 -3.9,1.24 -5.91,5.8"/>
  <path class="fil1 str1" d="M56.95 120.84c0,0 -3.53,2.07 -4.5,6.95"/>
  <path class="fil1 str1" d="M145.85 82.32c0,0 4.09,-0.07 7.32,-3.87"/>
 </g>
</svg>
